<svg xmlns="http://www.w3.org/2000/svg" version="1.1" xmlns:xlink="http://www.w3.org/1999/xlink" xmlns:svgjs="http://svgjs.dev/svgjs" width="128" height="128" viewBox="0 0 128 128"><g transform="matrix(0.8046875,0,0,0.8046875,12.333870967741937,14.533141175377615)"><svg viewBox="0 0 155 149" data-background-color="#ffffff" preserveAspectRatio="xMidYMid meet" height="123" width="128" xmlns="http://www.w3.org/2000/svg" xmlns:xlink="http://www.w3.org/1999/xlink"><g id="tight-bounds" transform="matrix(1,0,0,1,0.25,-0.032249466950972305)"><svg viewBox="0 0 154.5 149.06449893390192" height="149.06449893390192" width="154.5"><g><svg viewBox="0 0 154.5 149.06449893390192" height="149.06449893390192" width="154.5"><g><svg viewBox="0 0 154.5 149.06449893390192" height="149.06449893390192" width="154.5"><g><svg viewBox="0 0 154.5 149.06449893390192" height="149.06449893390192" width="154.5"><g><svg viewBox="0 0 154.5 149.06449893390192" height="149.06449893390192" width="154.5"><g transform="matrix(1,0,0,1,0,0)"><svg width="154.5" viewBox="-0.1 -40.7 98.64999999999999 45.25" height="149.06449893390192" data-palette-color="#c10000"><g class="undefined-text-0" data-fill-palette-color="primary" id="text-0"><path d="M45-33.95L45-33.95Q45-35.7 43.4-37.25L43.4-37.25Q41.1-39.45 37.05-39.45L37.05-39.45Q33.5-39.45 29.2-37.9L29.2-37.9Q26.95-37.1 25.3-35.7L25.3-35.7Q22.75-33.5 22.75-31.3L22.75-31.3Q22.75-28.35 26.5-26L26.5-26Q27.9-25.15 32.13-23.23 36.35-21.3 38.3-20.1L38.3-20.1Q41.25-18.3 42.38-16.25 43.5-14.2 43.5-12.45L43.5-12.45Q43.5-9.95 41.85-7.35L41.85-7.35Q38.95-2.7 33.35 0.65L33.35 0.65Q26.9 4.55 17.8 4.55L17.8 4.55Q9.05 4.55 3.9 0.1L3.9 0.1Q-0.1-3.3-0.1-8.65L-0.1-8.65Q-0.1-12.05 2.38-16.15 4.85-20.25 8.45-21.95L8.45-21.95Q9.2-22.25 9.58-22.15 9.95-22.05 8.95-21.2L8.95-21.2Q6.8-19.5 5.5-17.45L5.5-17.45Q2.7-13.05 2.7-7.9L2.7-7.9Q2.7-4.5 4.6-1.95L4.6-1.95Q8 2.6 16.4 3.2L16.4 3.2Q17.35 3.3 19.23 3.3 21.1 3.3 24.33 2.63 27.55 1.95 30.55 0.4L30.55 0.4Q37-3 38.9-8.4L38.9-8.4Q39.5-10 39.5-11.5L39.5-11.5Q39.5-14.9 36.45-17.5L36.45-17.5Q34.8-18.8 29.73-20.98 24.65-23.15 22.9-24.3L22.9-24.3Q19.05-26.9 19.05-30.45L19.05-30.45Q19.05-33.55 22.5-36.5L22.5-36.5Q27.45-40.7 36.5-40.7L36.5-40.7Q40.75-40.7 43.43-39.43 46.1-38.15 46.7-35.6L46.7-35.6Q46.8-35.1 46.8-34.6L46.8-34.6Q46.8-32.65 45-31.1L45-31.1Q43.75-30.1 41.65-29.5L41.65-29.5Q40.75-29.25 40.65-29.7L40.65-29.7Q40.55-30.35 41.9-30.5L41.9-30.5Q44.3-30.8 44.85-32.9L44.85-32.9Q45-33.45 45-33.95ZM93.25-35.25L93.25-35.25Q98.55-32.1 98.55-27.65L98.55-27.65Q98.55-24.15 94.65-20.15L94.65-20.15Q92.4-17.8 89.32-16.1 86.25-14.4 83.25-13.65L83.25-13.65Q78.05-12.4 73.85-12.4L73.85-12.4Q72.95-12.4 72.05-12.45L72.05-12.45Q68.4-7.1 64.55-3.35L64.55-3.35Q58.9 1.95 52.1 1.95L52.1 1.95Q45.6 1.95 44.1-1.6L44.1-1.6Q43.75-2.45 43.75-3.58 43.75-4.7 44.9-6L44.9-6Q46.7-8.05 49.95-8.05L49.95-8.05Q52.05-8.05 54.35-7.3L54.35-7.3Q55.2-7 54.95-6.65L54.95-6.65Q54.75-6.45 53.65-6.85 52.55-7.25 50.92-7.25 49.3-7.25 48.07-6.03 46.85-4.8 46.85-3.4L46.85-3.4Q46.85-2.85 47.05-2.3L47.05-2.3Q47.85 0.4 51.6 0.4L51.6 0.4Q57.2 0.4 62.6-4.8L62.6-4.8Q66.45-8.55 71.25-18.3L71.25-18.3Q73.1-21.95 75.85-26.43 78.6-30.9 81.45-34.1L81.45-34.1Q81.8-34.45 82.35-35L82.35-35Q83.4-36.2 84.1-36.9L84.1-36.9Q80.5-37.4 76.4-37.4 72.3-37.4 68.65-36.73 65-36.05 62.3-35.13 59.6-34.2 56.82-32.73 54.05-31.25 52.15-29L52.15-29Q49.65-26.15 49.65-23.05L49.65-23.05Q49.65-21.15 51-19.5L51-19.5Q52.45-17.75 54.72-17.75 57-17.75 59.12-19.5 61.25-21.25 62.15-23.8L62.15-23.8Q62.2-24.15 62.37-24.28 62.55-24.4 62.7-24.25 62.85-24.1 62.85-23.75L62.85-23.75Q62.8-20.5 60.32-18.63 57.85-16.75 54.85-16.75L54.85-16.75Q51.45-16.75 49.3-18.75 47.15-20.75 47.15-23.9L47.15-23.9Q47.15-26.8 48.7-29.13 50.25-31.45 52.4-32.9 54.55-34.35 57.35-35.5L57.35-35.5Q62.1-37.4 67.32-38.18 72.55-38.95 77.07-38.95 81.6-38.95 85.45-38.15L85.45-38.15Q87.25-39.55 88.6-40.05 89.95-40.55 90.12-40.55 90.3-40.55 90.35-40.5L90.35-40.5Q90.65-40.5 90.47-40.18 90.3-39.85 89.32-39.2 88.35-38.55 87.45-37.65L87.45-37.65Q90.65-36.8 93.25-35.25ZM73.45-13.5L73.45-13.5Q77.1-13.5 81.37-14.78 85.65-16.05 88.95-18.5L88.95-18.5Q95.35-23.35 95.35-28.5L95.35-28.5Q95.35-34.35 86.5-36.45L86.5-36.45Q83.7-32.55 79.25-24.6 74.8-16.65 72.75-13.5L72.75-13.5Q73.1-13.5 73.45-13.5Z" fill="#c10000" data-fill-palette-color="primary"></path></g></svg></g></svg></g></svg></g></svg></g></svg></g><defs></defs></svg><rect width="154.5" height="149.06449893390192" fill="none" stroke="none" visibility="hidden"></rect></g></svg></g></svg>